# Blender 3.3.1
# www.blender.org
mtllib tall.mtl
o tall
v -0.485219 0.013302 0.555904
v 1.514751 0.002495 0.555904
v -0.474413 2.013220 0.541367
v 1.525558 2.002413 0.541367
v 0.513358 0.007906 -0.451390
v 0.501637 0.007969 1.548576
v 0.538702 2.007746 -0.451305
v 0.526980 2.007809 1.548661
v -0.485146 0.026914 0.541367
v 1.514825 0.016108 0.541367
v -0.474339 2.026833 0.555904
v 1.525631 2.016026 0.555904
v 0.513432 0.021519 1.548661
v 0.501710 0.021582 -0.451305
v 0.538775 2.021358 1.548576
v 0.527054 2.021421 -0.451390
vn -0.0000 0.0073 1.0000
vn -0.9999 0.0127 -0.0059
vn -0.0000 -0.0073 1.0000
vn 0.9999 -0.0127 -0.0059
vt 0.121897 0.875270
vt 0.185137 0.875283
vt 0.122097 0.932021
vt 0.185081 0.932669
vt 0.121687 0.875302
vt 0.184929 0.875395
vt 0.122068 0.931742
vt 0.185132 0.932718
vt 0.121897 0.875270
vt 0.185137 0.875283
vt 0.122097 0.932021
vt 0.185081 0.932669
vt 0.121687 0.875302
vt 0.184929 0.875395
vt 0.122068 0.931742
vt 0.185132 0.932718
s 0
usemtl tall.001
f 1/1/1 2/2/1 4/4/1 3/3/1
f 5/5/2 6/6/2 8/8/2 7/7/2
f 9/9/3 10/10/3 12/12/3 11/11/3
f 13/13/4 14/14/4 16/16/4 15/15/4
